<?xml version="1.0" encoding="UTF-8"?>
<svg xmlns="http://www.w3.org/2000/svg" xmlns:xlink="http://www.w3.org/1999/xlink" width="200pt" height="200pt" viewBox="0 0 200 200" version="1.1">
<g id="surface1">
<path style=" stroke:none;fill-rule:nonzero;fill:rgb(100%,80.784314%,27.843137%);fill-opacity:1;" d="M 193.089844 125.769531 C 201.527344 140.449219 202.277344 155.945312 195.132812 168.285156 C 187.996094 180.621094 174.191406 187.699219 157.253906 187.699219 L 94.445312 187.699219 L 113.175781 166.988281 L 94.445312 146.28125 L 157.109375 146.28125 L 131.351562 101.472656 L 139.933594 74.847656 L 167.183594 80.703125 Z M 193.089844 125.769531 "/>
<path style=" stroke:none;fill-rule:nonzero;fill:rgb(52.156863%,76.078431%,31.372549%);fill-opacity:1;" d="M 94.445312 146.28125 L 113.175781 166.988281 L 94.445312 187.699219 L 42.746094 187.699219 C 25.808594 187.699219 12.003906 180.621094 4.867188 168.285156 C -2.277344 155.945312 -1.527344 140.449219 6.910156 125.769531 L 38.542969 70.730469 L 47.132812 97.355469 L 74.382812 91.5 L 42.890625 146.28125 Z M 94.445312 146.28125 "/>
<path style=" stroke:none;fill-rule:nonzero;fill:rgb(78.823529%,83.137255%,40.392157%);fill-opacity:1;" d="M 135.714844 25.957031 L 167.183594 80.703125 L 139.933594 74.847656 L 131.351562 101.472656 L 100 46.933594 L 74.382812 91.5 L 47.132812 97.355469 L 38.542969 70.730469 L 64.285156 25.957031 C 72.734375 11.253906 85.753906 2.824219 100 2.824219 C 114.246094 2.824219 127.265625 11.253906 135.714844 25.957031 Z M 135.714844 25.957031 "/>
<path style=" stroke:none;fill-rule:nonzero;fill:rgb(52.156863%,76.078431%,31.372549%);fill-opacity:1;" d="M 90.15625 197.175781 C 89.023438 197.175781 87.886719 196.773438 86.980469 195.953125 C 85.035156 194.199219 84.886719 191.199219 86.644531 189.261719 L 106.785156 166.988281 L 86.644531 144.722656 C 84.886719 142.78125 85.039062 139.785156 86.980469 138.027344 C 88.917969 136.269531 91.917969 136.421875 93.671875 138.363281 L 116.691406 163.8125 C 118.320312 165.617188 118.320312 168.363281 116.691406 170.167969 L 93.671875 195.617188 C 92.738281 196.652344 91.449219 197.175781 90.15625 197.175781 Z M 90.15625 197.175781 "/>
<path style=" stroke:none;fill-rule:nonzero;fill:rgb(100%,80.784314%,27.843137%);fill-opacity:1;" d="M 129.386719 112.300781 C 128.902344 112.300781 128.414062 112.226562 127.929688 112.074219 C 125.441406 111.269531 124.070312 108.597656 124.875 106.105469 L 135.425781 73.394531 C 136.167969 71.078125 138.550781 69.703125 140.929688 70.214844 L 174.417969 77.410156 C 176.980469 77.960938 178.609375 80.480469 178.058594 83.042969 C 177.507812 85.597656 174.988281 87.230469 172.429688 86.679688 L 143.128906 80.382812 L 133.894531 109.015625 C 133.246094 111.023438 131.386719 112.300781 129.386719 112.300781 Z M 129.386719 112.300781 "/>
<path style=" stroke:none;fill-rule:nonzero;fill:rgb(78.823529%,83.137255%,40.392157%);fill-opacity:1;" d="M 47.128906 102.09375 C 45.109375 102.09375 43.261719 100.796875 42.621094 98.808594 L 32.070312 66.09375 C 31.269531 63.605469 32.636719 60.933594 35.128906 60.128906 C 37.621094 59.324219 40.289062 60.695312 41.089844 63.183594 L 50.324219 91.820312 L 79.628906 85.523438 C 82.183594 84.972656 84.707031 86.601562 85.253906 89.160156 C 85.808594 91.71875 84.175781 94.238281 81.617188 94.789062 L 48.125 101.988281 C 47.792969 102.058594 47.457031 102.09375 47.128906 102.09375 Z M 47.128906 102.09375 "/>
</g>
</svg>
