<?xml version="1.0" encoding="UTF-8"?>
<svg xmlns="http://www.w3.org/2000/svg" xmlns:xlink="http://www.w3.org/1999/xlink" width="211pt" height="299pt" viewBox="0 0 211 299" version="1.1">
<g id="surface1">
<path style="fill-rule:nonzero;fill:rgb(52.156863%,76.078431%,31.372549%);fill-opacity:1;stroke-width:1;stroke-linecap:butt;stroke-linejoin:miter;stroke:rgb(52.156863%,76.078431%,31.372549%);stroke-opacity:1;stroke-miterlimit:4;" d="M 2340.006193 2701.877873 C 2168.146671 2680.952201 1976.965663 2609.83894 1827.986847 2512.866312 C 1750.022961 2461.998214 1579.010872 2288.808503 1526.131019 2209.018744 C 1389.016271 1997.890618 1325.967216 1769.919878 1338.000772 1524.936396 C 1364.949159 934.93451 1829.003767 475.930737 2420.173406 451.942771 C 2917.108436 431.867735 3369.976921 740.819127 3527.938533 1208.839653 C 3607.93626 1444.976509 3609.9701 1707.82337 3533.023135 1933.922709 C 3435.059817 2220.927663 3228.96398 2456.894392 2956.937812 2592.996326 C 2784.908803 2679.931436 2526.102599 2724.845075 2340.006193 2701.877873 Z M 2340.006193 2701.877873 " transform="matrix(-0.0230475,-0.000000000000000003,0.000000000000000003,-0.0229607,113.532925,81.646468)"/>
<path style=" stroke:none;fill-rule:nonzero;fill:rgb(52.156863%,76.078431%,31.372549%);fill-opacity:1;" d="M 86.890625 77.5625 C 87.441406 77.675781 88.296875 77.996094 88.757812 78.320312 C 89.308594 78.664062 94.21875 85 103.390625 97.144531 L 117.171875 115.425781 L 139.644531 115.425781 C 156.675781 115.425781 162.347656 115.492188 163.0625 115.699219 C 164.304688 116.066406 166.078125 117.835938 166.402344 119.003906 C 166.726562 120.175781 166.726562 130.1875 166.402344 131.335938 C 166.105469 132.460938 164.71875 133.976562 163.542969 134.503906 C 162.671875 134.917969 161.265625 134.941406 136.121094 134.941406 L 109.589844 134.941406 L 108.644531 134.414062 C 106.109375 133.054688 105.394531 132.253906 96.9375 121.046875 L 88.640625 110.097656 L 88.527344 203.617188 L 88.410156 297.160156 L 87.902344 298.652344 C 86.269531 303.382812 82.324219 306.824219 77.648438 307.605469 C 70.730469 308.773438 64.601562 305.355469 62.183594 298.972656 L 61.675781 297.617188 L 61.445312 184.421875 L 52.917969 184.421875 L 52.800781 241.132812 L 52.6875 297.847656 L 52.15625 299.222656 C 51.441406 301.109375 49.945312 303.308594 48.558594 304.527344 C 44.226562 308.339844 37.335938 308.914062 32.175781 305.90625 C 30.539062 304.941406 28.601562 302.875 27.632812 301.039062 C 25.925781 297.800781 26.066406 307.054688 26.066406 203.203125 L 26.066406 109.683594 L 20.535156 109.683594 L 20.535156 145.59375 C 20.535156 179.875 20.511719 181.574219 20.121094 182.882812 C 19.3125 185.429688 17.539062 187.382812 14.867188 188.601562 C 13.621094 189.171875 13.277344 189.21875 10.738281 189.21875 C 8.203125 189.21875 7.859375 189.171875 6.617188 188.601562 C 3.941406 187.382812 2.167969 185.429688 1.359375 182.882812 C 0.96875 181.574219 0.945312 179.621094 0.945312 135.675781 C 0.945312 96.414062 0.992188 89.589844 1.292969 88.238281 C 2.328125 83.371094 6.152344 79.351562 11.199219 77.859375 C 12.515625 77.46875 14.683594 77.445312 49.230469 77.398438 C 69.648438 77.378906 86.335938 77.445312 86.890625 77.5625 Z M 86.890625 77.5625 "/>
<path style=" stroke:none;fill-rule:nonzero;fill:rgb(80%,0%,0%);fill-opacity:1;" d="M 181.660156 155.511719 C 183.871094 160.128906 185.695312 163.988281 185.742188 164.078125 C 185.808594 164.261719 168.753906 172.480469 168.636719 172.320312 C 168.480469 172.160156 160.433594 155.285156 160.503906 155.261719 C 160.523438 155.261719 164.328125 153.445312 168.960938 151.242188 C 173.59375 149.0625 177.441406 147.222656 177.511719 147.203125 C 177.582031 147.15625 179.449219 150.898438 181.660156 155.511719 Z M 181.660156 155.511719 "/>
<path style=" stroke:none;fill-rule:nonzero;fill:rgb(80%,0%,0%);fill-opacity:1;" d="M 163.3125 177.210938 C 168.199219 179.828125 171.382812 181.664062 171.359375 181.847656 C 171.335938 182.125 162.875 198.011719 162.625 198.265625 C 162.578125 198.335938 146.214844 189.703125 145.9375 189.449219 C 145.777344 189.308594 154.742188 172.824219 154.996094 172.847656 C 155.132812 172.847656 158.867188 174.824219 163.3125 177.210938 Z M 163.3125 177.210938 "/>
<path style=" stroke:none;fill-rule:nonzero;fill:rgb(100%,80.784314%,27.843137%);fill-opacity:1;" d="M 211 188.851562 C 211.070312 188.96875 210.816406 191.214844 210.449219 193.855469 C 209.824219 198.242188 208.464844 208.207031 204.683594 235.625 C 202.980469 247.976562 201.78125 256.679688 197.886719 284.988281 C 196.179688 297.386719 194.773438 307.582031 194.773438 307.671875 C 194.773438 307.765625 180.621094 307.835938 163.3125 307.835938 C 146.003906 307.835938 131.855469 307.765625 131.855469 307.695312 C 131.855469 307.628906 131.347656 303.816406 130.703125 299.269531 C 128.28125 281.730469 124.410156 253.625 123.304688 245.609375 C 122.683594 240.996094 121.757812 234.292969 121.253906 230.6875 C 120.746094 227.082031 119.316406 216.542969 118.023438 207.269531 C 116.757812 197.992188 115.652344 190 115.582031 189.519531 L 115.445312 188.667969 L 124.386719 188.714844 L 133.332031 188.785156 L 134.644531 198.425781 C 135.378906 203.730469 138.054688 223.203125 140.613281 241.707031 C 143.148438 260.210938 145.683594 278.492188 146.214844 282.347656 L 147.179688 289.351562 L 179.449219 289.351562 L 182.238281 269.03125 C 183.78125 257.847656 186.40625 238.746094 188.089844 226.554688 C 189.773438 214.363281 191.617188 200.882812 192.214844 196.589844 L 193.296875 188.785156 L 202.082031 188.714844 C 206.921875 188.691406 210.929688 188.757812 211 188.851562 Z M 211 188.851562 "/>
<path style=" stroke:none;fill-rule:nonzero;fill:rgb(80%,0%,0%);fill-opacity:1;" d="M 172.996094 204.785156 C 174.308594 211.925781 175.96875 222.71875 175.757812 222.789062 C 175.324219 222.949219 157.367188 225.886719 157.300781 225.796875 C 157.207031 225.726562 154.210938 207.886719 154.210938 207.453125 C 154.210938 207.222656 156.632812 206.738281 163.015625 205.703125 C 167.875 204.902344 172.070312 204.1875 172.351562 204.121094 C 172.765625 204.03125 172.878906 204.121094 172.996094 204.785156 Z M 172.996094 204.785156 "/>
</g>
</svg>
