<?xml version="1.0" encoding="UTF-8"?>
<svg xmlns="http://www.w3.org/2000/svg" xmlns:xlink="http://www.w3.org/1999/xlink" width="200pt" height="200pt" viewBox="0 0 200 200" version="1.1">
<g id="surface1">
<path style=" stroke:none;fill-rule:nonzero;fill:rgb(40%,74.901961%,0%);fill-opacity:1;" d="M 133.402344 196.867188 L 65.277344 196.867188 C 58.433594 196.867188 52.695312 191.699219 51.988281 184.890625 L 36.535156 36.535156 L 150.105469 36.535156 Z M 133.402344 196.867188 "/>
<path style=" stroke:none;fill-rule:nonzero;fill:rgb(34.509804%,67.058824%,13.72549%);fill-opacity:1;" d="M 150.105469 36.535156 L 36.535156 36.535156 L 38.96875 59.917969 L 51.988281 184.890625 C 52.699219 191.699219 58.433594 196.867188 65.277344 196.867188 L 75.296875 196.867188 C 68.457031 196.867188 62.71875 191.699219 62.007812 184.890625 L 49.375 63.601562 C 49.167969 61.632812 50.714844 59.914062 52.695312 59.914062 L 147.667969 59.914062 Z M 150.105469 36.535156 "/>
<path style=" stroke:none;fill-rule:nonzero;fill:rgb(40%,74.901961%,0%);fill-opacity:1;" d="M 156.785156 49.894531 L 29.855469 49.894531 C 26.164062 49.894531 23.171875 46.90625 23.171875 43.214844 L 23.171875 23.171875 L 163.464844 23.171875 L 163.464844 43.214844 C 163.464844 46.90625 160.476562 49.894531 156.785156 49.894531 Z M 156.785156 49.894531 "/>
<path style=" stroke:none;fill-rule:nonzero;fill:rgb(34.509804%,67.058824%,13.72549%);fill-opacity:1;" d="M 23.171875 23.171875 L 163.464844 23.171875 L 163.464844 29.855469 L 23.171875 29.855469 Z M 23.171875 23.171875 "/>
<path style=" stroke:none;fill-rule:nonzero;fill:rgb(40%,74.901961%,0%);fill-opacity:1;" d="M 163.464844 23.171875 L 23.171875 23.171875 L 23.171875 16.492188 C 23.171875 9.113281 29.15625 3.132812 36.535156 3.132812 L 150.105469 3.132812 C 157.484375 3.132812 163.464844 9.113281 163.464844 16.492188 Z M 163.464844 23.171875 "/>
<path style=" stroke:none;fill-rule:nonzero;fill:rgb(71.372549%,89.411765%,38.431373%);fill-opacity:1;" d="M 150.105469 3.132812 L 36.535156 3.132812 C 31.53125 3.132812 27.175781 5.882812 24.886719 9.953125 L 161.753906 9.953125 C 159.464844 5.882812 155.105469 3.132812 150.105469 3.132812 Z M 150.105469 3.132812 "/>
<path style=" stroke:none;fill-rule:nonzero;fill:rgb(100%,77.254902%,32.156863%);fill-opacity:1;" d="M 150.105469 180.167969 C 150.105469 189.390625 142.625 196.867188 133.402344 196.867188 C 124.179688 196.867188 116.703125 189.390625 116.703125 180.167969 C 116.703125 170.941406 124.179688 163.464844 133.402344 163.464844 C 142.625 163.464844 150.105469 170.941406 150.105469 180.167969 Z M 150.105469 180.167969 "/>
<path style=" stroke:none;fill-rule:nonzero;fill:rgb(59.607843%,56.078431%,32.156863%);fill-opacity:1;" d="M 140.082031 180.167969 C 140.082031 183.855469 137.09375 186.847656 133.402344 186.847656 C 129.714844 186.847656 126.722656 183.855469 126.722656 180.167969 C 126.722656 176.476562 129.714844 173.488281 133.402344 173.488281 C 137.09375 173.488281 140.082031 176.476562 140.082031 180.167969 Z M 140.082031 180.167969 "/>
<path style=" stroke:none;fill-rule:nonzero;fill:rgb(0%,0%,0%);fill-opacity:1;" d="M 173.484375 13.363281 L 166.296875 13.363281 C 164.828125 5.761719 158.128906 0 150.105469 0 L 36.535156 0 C 27.441406 0 20.042969 7.398438 20.042969 16.492188 L 20.042969 43.214844 C 20.042969 48.625 24.445312 53.027344 29.855469 53.027344 L 35.105469 53.027344 L 48.875 185.214844 C 49.75 193.644531 56.804688 200 65.277344 200 L 133.402344 200 C 144.339844 200 153.234375 191.101562 153.234375 180.167969 C 153.234375 171.628906 147.8125 164.335938 140.230469 161.546875 L 141.78125 146.675781 C 141.960938 144.953125 140.710938 143.414062 138.988281 143.234375 C 137.269531 143.054688 135.730469 144.304688 135.550781 146.027344 L 134.058594 160.351562 C 133.839844 160.34375 133.625 160.335938 133.402344 160.335938 C 122.46875 160.335938 113.570312 169.230469 113.570312 180.167969 C 113.570312 185.414062 115.621094 190.1875 118.960938 193.738281 L 65.277344 193.738281 C 60.023438 193.738281 55.648438 189.796875 55.101562 184.566406 L 41.402344 53.027344 L 145.238281 53.027344 L 136.855469 133.484375 C 136.675781 135.203125 137.925781 136.742188 139.648438 136.921875 C 139.757812 136.933594 139.867188 136.941406 139.976562 136.941406 C 141.558594 136.941406 142.917969 135.742188 143.085938 134.132812 L 151.535156 53.027344 L 156.785156 53.027344 C 162.195312 53.027344 166.597656 48.625 166.597656 43.214844 L 166.597656 32.984375 L 173.484375 32.984375 C 177.054688 32.984375 179.957031 30.082031 179.957031 26.511719 L 179.957031 19.832031 C 179.957031 16.265625 177.054688 13.359375 173.488281 13.359375 Z M 119.832031 180.167969 C 119.832031 172.683594 125.921875 166.597656 133.402344 166.597656 C 140.886719 166.597656 146.972656 172.683594 146.972656 180.167969 C 146.972656 187.648438 140.886719 193.738281 133.402344 193.738281 C 125.921875 193.738281 119.832031 187.648438 119.832031 180.167969 Z M 160.335938 43.214844 C 160.335938 45.171875 158.742188 46.765625 156.785156 46.765625 L 29.855469 46.765625 C 27.898438 46.765625 26.304688 45.171875 26.304688 43.214844 L 26.304688 26.304688 L 43.007812 26.304688 C 44.734375 26.304688 46.136719 24.902344 46.136719 23.171875 C 46.136719 21.445312 44.734375 20.042969 43.007812 20.042969 L 26.304688 20.042969 L 26.304688 16.492188 C 26.304688 10.851562 30.894531 6.261719 36.535156 6.261719 L 150.105469 6.261719 C 155.746094 6.261719 160.332031 10.851562 160.332031 16.492188 L 160.332031 20.042969 L 56.574219 20.042969 C 54.847656 20.042969 53.445312 21.445312 53.445312 23.171875 C 53.445312 24.902344 54.847656 26.304688 56.574219 26.304688 L 160.332031 26.304688 L 160.332031 43.214844 Z M 173.695312 26.515625 C 173.695312 26.628906 173.601562 26.722656 173.488281 26.722656 L 166.597656 26.722656 L 166.597656 19.625 L 173.488281 19.625 C 173.601562 19.625 173.695312 19.71875 173.695312 19.832031 Z M 173.695312 26.515625 "/>
<path style=" stroke:none;fill-rule:nonzero;fill:rgb(0%,0%,0%);fill-opacity:1;" d="M 133.402344 170.355469 C 127.992188 170.355469 123.589844 174.757812 123.589844 180.167969 C 123.589844 185.578125 127.992188 189.980469 133.402344 189.980469 C 138.8125 189.980469 143.214844 185.578125 143.214844 180.167969 C 143.214844 174.757812 138.8125 170.355469 133.402344 170.355469 Z M 133.402344 183.714844 C 131.445312 183.714844 129.851562 182.125 129.851562 180.167969 C 129.851562 178.210938 131.445312 176.617188 133.402344 176.617188 C 135.359375 176.617188 136.953125 178.210938 136.953125 180.167969 C 136.953125 182.125 135.359375 183.714844 133.402344 183.714844 Z M 133.402344 183.714844 "/>
<path style=" stroke:none;fill-rule:nonzero;fill:rgb(0%,0%,0%);fill-opacity:1;" d="M 59.039062 131.878906 C 60.839844 134.792969 63.960938 136.535156 67.386719 136.535156 L 82.566406 136.535156 C 84.296875 136.535156 85.699219 135.132812 85.699219 133.402344 C 85.699219 131.671875 84.296875 130.269531 82.566406 130.269531 L 67.386719 130.269531 C 66.128906 130.269531 65.027344 129.65625 64.367188 128.585938 C 63.707031 127.519531 63.648438 126.261719 64.210938 125.136719 L 76.417969 100.71875 L 76.917969 102.722656 C 77.34375 104.421875 79.148438 105.457031 80.832031 104.96875 C 82.429688 104.507812 83.398438 102.8125 82.996094 101.203125 L 80.703125 92.039062 C 80.285156 90.359375 78.585938 89.339844 76.90625 89.757812 L 76.6875 89.8125 C 76.257812 89.832031 75.835938 89.9375 75.449219 90.125 L 67.742188 92.050781 C 66.0625 92.46875 65.042969 94.171875 65.460938 95.847656 C 65.882812 97.527344 67.585938 98.546875 69.261719 98.125 L 70.921875 97.710938 L 58.609375 122.335938 C 57.078125 125.398438 57.238281 128.96875 59.039062 131.878906 Z M 59.039062 131.878906 "/>
<path style=" stroke:none;fill-rule:nonzero;fill:rgb(0%,0%,0%);fill-opacity:1;" d="M 127.601562 131.878906 C 129.402344 128.964844 129.5625 125.398438 128.03125 122.335938 L 122.195312 110.664062 C 121.421875 109.117188 119.542969 108.492188 117.992188 109.265625 C 116.445312 110.039062 115.820312 111.917969 116.59375 113.464844 L 122.425781 125.136719 C 123.59375 127.464844 121.847656 130.269531 119.253906 130.269531 L 100.878906 130.269531 L 102.214844 128.9375 C 103.4375 127.714844 103.4375 125.730469 102.214844 124.507812 C 100.992188 123.285156 99.007812 123.285156 97.785156 124.507812 L 91.105469 131.1875 C 89.882812 132.410156 89.882812 134.394531 91.105469 135.617188 L 97.785156 142.296875 C 99.058594 143.570312 101.210938 143.484375 102.378906 142.117188 C 103.429688 140.890625 103.355469 139.007812 102.214844 137.867188 L 100.878906 136.535156 L 119.253906 136.535156 C 122.679688 136.535156 125.800781 134.792969 127.601562 131.878906 Z M 127.601562 131.878906 "/>
<path style=" stroke:none;fill-rule:nonzero;fill:rgb(0%,0%,0%);fill-opacity:1;" d="M 93.320312 71.304688 C 94.691406 71.304688 95.878906 72.039062 96.496094 73.265625 L 108.90625 98.089844 L 106.839844 97.574219 C 105.160156 97.152344 103.460938 98.171875 103.042969 99.851562 C 102.621094 101.527344 103.640625 103.230469 105.320312 103.648438 L 114.484375 105.941406 C 116.140625 106.355469 117.867188 105.316406 118.285156 103.660156 L 120.574219 94.496094 C 120.988281 92.839844 119.953125 91.113281 118.296875 90.699219 C 116.640625 90.285156 114.914062 91.320312 114.5 92.976562 L 114.117188 94.507812 L 102.09375 70.464844 C 100.421875 67.121094 97.058594 65.042969 93.320312 65.042969 C 89.578125 65.042969 86.214844 67.121094 84.542969 70.464844 L 78.890625 81.773438 C 78.117188 83.320312 78.742188 85.199219 80.289062 85.972656 C 81.839844 86.746094 83.71875 86.121094 84.492188 84.574219 L 90.144531 73.265625 C 90.757812 72.039062 91.945312 71.304688 93.320312 71.304688 Z M 93.320312 71.304688 "/>
</g>
</svg>
