<?xml version="1.0" encoding="UTF-8"?>
<svg xmlns="http://www.w3.org/2000/svg" xmlns:xlink="http://www.w3.org/1999/xlink" width="15pt" height="15pt" viewBox="0 0 15 15" version="1.1">
<g id="surface1">
<path style=" stroke:none;fill-rule:nonzero;fill:rgb(0%,0%,0%);fill-opacity:1;" d="M 14.8125 13.925781 L 10.507812 9.617188 C 11.355469 8.601562 11.867188 7.300781 11.867188 5.878906 C 11.867188 2.640625 9.207031 0.0078125 5.9375 0.0078125 C 2.664062 0.0078125 0 2.644531 0 5.882812 C 0 9.125 2.660156 11.757812 5.929688 11.757812 C 7.320312 11.757812 8.597656 11.28125 9.613281 10.484375 L 13.933594 14.804688 C 14.183594 15.058594 14.558594 15.058594 14.8125 14.804688 C 15.0625 14.550781 15.0625 14.175781 14.8125 13.925781 Z M 1.261719 5.882812 C 1.261719 3.339844 3.355469 1.269531 5.929688 1.269531 C 8.503906 1.269531 10.597656 3.339844 10.597656 5.882812 C 10.597656 8.429688 8.503906 10.496094 5.929688 10.496094 C 3.355469 10.496094 1.261719 8.425781 1.261719 5.882812 Z M 1.261719 5.882812 "/>
</g>
</svg>
