<svg width="1168.1749" height="540.43018" xmlns="http://www.w3.org/2000/svg">

 <g>
  <title>background</title>
  <rect fill="none" id="canvas_background" height="402" width="582" y="-1" x="-1"/>
 </g>
 <g>
  <title>Layer 1</title>
  <g id="svg_1">
   <path stroke="null" id="svg_2" fill="none" d="m0.38853,5.844653l1160.316469,0l0,532.35l-1160.316469,0l0,-532.35z"/>
   <path id="svg_3" fill="#01a864" d="m277.739225,274.130791l0,17.248l-9.4862,0l0,208.7l94,0l0,-208.7l-11.211,0l0,-17.248l-73.303,0l0.0002,0z"/>
   <path id="svg_5" fill="#008650" d="m714.07975,43.635358c-11.378,1.5728 -20.048,11.923 -21.71,22.963c-3.8701,3.624 -8.1002,6.9141 -13.038,3.0535c-7.6775,-1.4611 -15.991,2.9379 -19.191,10.05c-9.338,-3.0446 -20.312,7.2675 -16.055,16.714c2.8364,7.0728 12.452,9.884 18.879,6.039c6.1251,8.1732 19.814,9.0463 26.62,1.2748c6.2627,2.9606 14.315,6.6116 20.536,1.5537c5.8772,-3.7663 13.329,-0.5165 19.16,-4.124c4.8809,-4.2004 9.9779,-5.9931 16.095,-3.9807c6.9468,-0.1484 13.686,-4.6313 16.247,-11.135c5.8517,6.3831 17.618,4.1813 21.023,-3.7069c4.341,1.1923 8.8204,6.0274 14.14,2.9275c9.9591,-4.1217 10.593,-19.837 1.3597,-25.114c-5.4126,-3.7138 -13.646,-1.8319 -16.417,4.2957c-3.1003,2.0566 -5.5483,-4.9387 -10.001,-3.4671c-5.7755,-1.0806 -0.6295,-9.3805 -5.5618,-12.567c-3.8903,-5.635 -12.462,-7.1758 -17.672,-2.4649c-4.0728,3.0104 -3.2702,16.277 -9.9057,8.8167c-4.0427,-5.8575 -10.002,-10.104 -17.138,-11.08c-2.435,-0.3982 -4.9331,-0.4259 -7.3726,-0.049l0.0024,0.0007z"/>
   <path id="svg_6" fill="#01a864" d="m849.704652,32.71028c-19.887,-0.2413 -37.402,15.245 -43.094,33.719c-7.5611,5.207 -15.652,9.7494 -23.111,1.8659c-12.769,-4.4818 -28.138,0.9064 -35.451,12.259c-15.204,-7.6212 -36.653,7.2053 -31.8,24.479c3.0326,12.842 18.772,20.135 30.768,15.209c8.3797,15.574 31.593,20.599 45.25,9.0475c9.9597,6.6844 22.806,15.012 34.761,7.9563c11.034,-4.9332 22.956,2.553 33.87,-2.12c9.4405,-5.9334 18.63,-7.6883 28.585,-2.6651c11.933,1.5373 24.628,-4.4003 30.691,-14.875c8.3733,12.438 29.088,11.703 36.953,-0.9253c7.1253,3.161 13.548,12.595 23.456,8.6591c18.115,-4.489 23.253,-31.233 8.8049,-42.651c-8.31,-7.7546 -22.892,-6.6557 -29.217,3.1215c-5.8389,2.7218 -8.2264,-9.8869 -16.23,-8.5156c-9.6103,-3.3396 1.3413,-16.224 -6.2821,-22.951c-5.2079,-10.652 -19.487,-15.5 -29.622,-8.7778c-7.7498,4.1041 -9.797,27.027 -19.234,12.542c-5.4114,-11.072 -14.52,-19.88 -26.486,-23.392c-4.0665,-1.3096 -8.3368,-2.0013 -12.611,-1.9844l-0.0008,-0.0011z"/>
   <path id="svg_7" fill="#008650" d="m829.527626,142.351649c-13.21,-0.1602 -24.844,10.126 -28.625,22.398c-5.0225,3.4588 -10.397,6.4761 -15.352,1.2394c-8.4818,-2.977 -18.691,0.6021 -23.549,8.1432c-10.099,-5.0624 -24.347,4.7862 -21.123,16.26c2.0144,8.5301 12.47,13.375 20.438,10.103c5.5663,10.345 20.986,13.683 30.057,6.0099c6.6157,4.4401 15.149,9.9719 23.09,5.2849c7.3297,-3.2769 15.249,1.6959 22.498,-1.4082c6.2709,-3.9413 12.375,-5.107 18.988,-1.7703c7.9263,1.0212 16.359,-2.9229 20.386,-9.8807c5.562,8.2623 19.322,7.7737 24.546,-0.6146c4.733,2.0997 8.9994,8.3662 15.581,5.7518c12.033,-2.9818 15.446,-20.747 5.8488,-28.331c-5.52,-5.151 -15.206,-4.4211 -19.408,2.0735c-3.8785,1.8079 -5.4644,-6.5675 -10.781,-5.6566c-6.3837,-2.2183 0.891,-10.777 -4.1729,-15.245c-3.4594,-7.0755 -12.944,-10.296 -19.677,-5.8307c-5.1479,2.7262 -6.5077,17.953 -12.776,8.3308c-3.5945,-7.3545 -9.6451,-13.205 -17.594,-15.538c-2.7011,-0.8699 -5.5377,-1.3293 -8.3768,-1.3182l0.0019,-0.0012z"/>
   <path id="svg_8" fill="#01a864" d="m622.807054,97.531077l0,40l-20,0l0,292l-24,0l0,-172l-96,0l0,92l-14,0l0,-214l-88,0l0,150l-26,0l0,64l-2,0l0,80l-44,0l0,-158l-2,0l0,72l2,162l0,-2l806,0l0,-4l2,0l0,-234l-52,0l0,-154l-34,0l0,154l-16,0l0,160l-16,0l0,-162l-58,0l0,-71.062l-100,-32.938l0,60l-84,0l0,136l-46,0l0,-218l-16,0l0,-40l-72,0z"/>
   <g id="svg_9" transform="matrix(0.46792,0,0,0.46792,1329.4,1496.9) ">
    <path id="svg_10" fill="#008650" d="m-1423.62882,-2531.500423l310.89,0l0,414.24l-310.89,0l0,-414.24z"/>
    <g id="svg_11" transform="matrix(2.3394,0,0,1,2146.1,-842.31) ">
     <path id="svg_12" fill="#008650" d="m-1524.430222,-1672.500423l0,29l7.2534,0l0,-29l-7.2534,0zm9.4441,0l0,29l7.2534,0l0,-29l-7.2534,0zm9.4308,0l0,29l7.2668,0l0,-29l-7.2668,0zm9.4441,0l0,29l7.2534,0l0,-29l-7.2534,0zm9.4441,0l0,29l7.2534,0l0,-29l-7.2534,0zm9.4308,0l0,29l7.2668,0l0,-29l-7.2668,0zm9.4441,0l0,29l7.2534,0l0,-29l-7.2534,0zm9.4441,0l0,29l7.2534,0l0,-29l-7.2534,0zm9.4308,0l0,29l7.2668,0l0,-29l-7.2668,0zm9.4441,0l0,29l7.2534,0l0,-29l-7.2534,0zm9.4441,0l0,29l7.2534,0l0,-29l-7.2534,0zm9.4308,0l0,29l7.2668,0l0,-29l-7.2668,0zm9.4441,0l0,29l7.2534,0l0,-29l-7.2534,0zm9.4441,0l0,29l7.2534,0l0,-29l-7.2534,0z"/>
    </g>
    <path id="svg_13" fill="#008650" d="m-1420.21382,-2514.820423l0,29l16.969,0l0,-29l-16.969,0zm22.094,0l0,29l16.969,0l0,-29l-16.969,0zm22.062,0l0,29l17,0l0,-29l-17,0zm22.094,0l0,29l16.969,0l0,-29l-16.969,0zm22.094,0l0,29l16.969,0l0,-29l-16.969,0zm22.062,0l0,29l17,0l0,-29l-17,0zm22.094,0l0,29l16.969,0l0,-29l-16.969,0zm22.094,0l0,29l16.969,0l0,-29l-16.969,0zm22.062,0l0,29l17,0l0,-29l-17,0zm22.094,0l0,29l16.969,0l0,-29l-16.969,0zm22.094,0l0,29l16.969,0l0,-29l-16.969,0zm22.062,0l0,29l17,0l0,-29l-17,0zm22.094,0l0,29l16.969,0l0,-29l-16.969,0zm22.094,0l0,29l16.969,0l0,-29l-16.969,0zm-287.09,36.25l0,29l16.969,0l0,-29l-16.969,0zm22.094,0l0,29l16.969,0l0,-29l-16.969,0zm22.062,0l0,29l17,0l0,-29l-17,0zm22.094,0l0,29l16.969,0l0,-29l-16.969,0zm22.094,0l0,29l16.969,0l0,-29l-16.969,0zm22.062,0l0,29l17,0l0,-29l-17,0zm22.094,0l0,29l16.969,0l0,-29l-16.969,0zm22.094,0l0,29l16.969,0l0,-29l-16.969,0zm22.062,0l0,29l17,0l0,-29l-17,0zm22.094,0l0,29l16.969,0l0,-29l-16.969,0zm22.094,0l0,29l16.969,0l0,-29l-16.969,0zm22.062,0l0,29l17,0l0,-29l-17,0zm22.094,0l0,29l16.969,0l0,-29l-16.969,0zm22.094,0l0,29l16.969,0l0,-29l-16.969,0zm-287.09,36.25l0,29l16.969,0l0,-29l-16.969,0zm22.094,0l0,29l16.969,0l0,-29l-16.969,0zm22.062,0l0,29l17,0l0,-29l-17,0zm22.094,0l0,29l16.969,0l0,-29l-16.969,0zm22.094,0l0,29l16.969,0l0,-29l-16.969,0zm22.062,0l0,29l17,0l0,-29l-17,0zm22.094,0l0,29l16.969,0l0,-29l-16.969,0zm22.094,0l0,29l16.969,0l0,-29l-16.969,0zm22.062,0l0,29l17,0l0,-29l-17,0zm22.094,0l0,29l16.969,0l0,-29l-16.969,0zm22.094,0l0,29l16.969,0l0,-29l-16.969,0zm22.062,0l0,29l17,0l0,-29l-17,0zm22.094,0l0,29l16.969,0l0,-29l-16.969,0zm22.094,0l0,29l16.969,0l0,-29l-16.969,0zm-287.09,36.25l0,29l16.969,0l0,-29l-16.969,0zm22.094,0l0,29l16.969,0l0,-29l-16.969,0zm22.062,0l0,29l17,0l0,-29l-17,0zm22.094,0l0,29l16.969,0l0,-29l-16.969,0zm22.094,0l0,29l16.969,0l0,-29l-16.969,0zm22.062,0l0,29l17,0l0,-29l-17,0zm22.094,0l0,29l16.969,0l0,-29l-16.969,0zm22.094,0l0,29l16.969,0l0,-29l-16.969,0zm22.062,0l0,29l17,0l0,-29l-17,0zm22.094,0l0,29l16.969,0l0,-29l-16.969,0zm22.094,0l0,29l16.969,0l0,-29l-16.969,0zm22.062,0l0,29l17,0l0,-29l-17,0zm22.094,0l0,29l16.969,0l0,-29l-16.969,0zm22.094,0l0,29l16.969,0l0,-29l-16.969,0zm-287.09,36.25l0,29l16.969,0l0,-29l-16.969,0zm22.094,0l0,29l16.969,0l0,-29l-16.969,0zm22.062,0l0,29l17,0l0,-29l-17,0zm22.094,0l0,29l16.969,0l0,-29l-16.969,0zm22.094,0l0,29l16.969,0l0,-29l-16.969,0zm22.062,0l0,29l17,0l0,-29l-17,0zm22.094,0l0,29l16.969,0l0,-29l-16.969,0zm22.094,0l0,29l16.969,0l0,-29l-16.969,0zm22.062,0l0,29l17,0l0,-29l-17,0zm22.094,0l0,29l16.969,0l0,-29l-16.969,0zm22.094,0l0,29l16.969,0l0,-29l-16.969,0zm22.062,0l0,29l17,0l0,-29l-17,0zm22.094,0l0,29l16.969,0l0,-29l-16.969,0zm22.094,0l0,29l16.969,0l0,-29l-16.969,0zm-287.09,36.25l0,29l16.969,0l0,-29l-16.969,0zm22.094,0l0,29l16.969,0l0,-29l-16.969,0zm22.062,0l0,29l17,0l0,-29l-17,0zm22.094,0l0,29l16.969,0l0,-29l-16.969,0zm22.094,0l0,29l16.969,0l0,-29l-16.969,0zm22.062,0l0,29l17,0l0,-29l-17,0zm22.094,0l0,29l16.969,0l0,-29l-16.969,0zm22.094,0l0,29l16.969,0l0,-29l-16.969,0zm22.062,0l0,29l17,0l0,-29l-17,0zm22.094,0l0,29l16.969,0l0,-29l-16.969,0zm22.094,0l0,29l16.969,0l0,-29l-16.969,0zm22.062,0l0,29l17,0l0,-29l-17,0zm22.094,0l0,29l16.969,0l0,-29l-16.969,0zm22.094,0l0,29l16.969,0l0,-29l-16.969,0zm-287.09,36.25l0,29l16.969,0l0,-29l-16.969,0zm22.094,0l0,29l16.969,0l0,-29l-16.969,0zm22.062,0l0,29l17,0l0,-29l-17,0zm22.094,0l0,29l16.969,0l0,-29l-16.969,0zm22.094,0l0,29l16.969,0l0,-29l-16.969,0zm22.062,0l0,29l17,0l0,-29l-17,0zm22.094,0l0,29l16.969,0l0,-29l-16.969,0zm22.094,0l0,29l16.969,0l0,-29l-16.969,0zm22.062,0l0,29l17,0l0,-29l-17,0zm22.094,0l0,29l16.969,0l0,-29l-16.969,0zm22.094,0l0,29l16.969,0l0,-29l-16.969,0zm22.062,0l0,29l17,0l0,-29l-17,0zm22.094,0l0,29l16.969,0l0,-29l-16.969,0zm22.094,0l0,29l16.969,0l0,-29l-16.969,0zm-287.09,36.25l0,29l16.969,0l0,-29l-16.969,0zm22.094,0l0,29l16.969,0l0,-29l-16.969,0zm22.062,0l0,29l17,0l0,-29l-17,0zm22.094,0l0,29l16.969,0l0,-29l-16.969,0zm22.094,0l0,29l16.969,0l0,-29l-16.969,0zm22.062,0l0,29l17,0l0,-29l-17,0zm22.094,0l0,29l16.969,0l0,-29l-16.969,0zm22.094,0l0,29l16.969,0l0,-29l-16.969,0zm22.062,0l0,29l17,0l0,-29l-17,0zm22.094,0l0,29l16.969,0l0,-29l-16.969,0zm22.094,0l0,29l16.969,0l0,-29l-16.969,0zm22.062,0l0,29l17,0l0,-29l-17,0zm22.094,0l0,29l16.969,0l0,-29l-16.969,0zm22.094,0l0,29l16.969,0l0,-29l-16.969,0zm-287.09,36.25l0,29l16.969,0l0,-29l-16.969,0zm22.094,0l0,29l16.969,0l0,-29l-16.969,0zm22.062,0l0,29l17,0l0,-29l-17,0zm22.094,0l0,29l16.969,0l0,-29l-16.969,0zm22.094,0l0,29l16.969,0l0,-29l-16.969,0zm22.062,0l0,29l17,0l0,-29l-17,0zm22.094,0l0,29l16.969,0l0,-29l-16.969,0zm22.094,0l0,29l16.969,0l0,-29l-16.969,0zm22.062,0l0,29l17,0l0,-29l-17,0zm22.094,0l0,29l16.969,0l0,-29l-16.969,0zm22.094,0l0,29l16.969,0l0,-29l-16.969,0zm22.062,0l0,29l17,0l0,-29l-17,0zm22.094,0l0,29l16.969,0l0,-29l-16.969,0zm22.094,0l0,29l16.969,0l0,-29l-16.969,0zm-287.09,36.25l0,71.438l16.969,0l0,-71.438l-16.969,0zm22.094,0l0,71.438l16.969,0l0,-71.438l-16.969,0zm22.062,0l0,71.438l17,0l0,-71.438l-17,0zm22.094,0l0,71.438l16.969,0l0,-71.438l-16.969,0zm22.094,0l0,71.438l16.969,0l0,-71.438l-16.969,0zm22.062,0l0,71.438l17,0l0,-71.438l-17,0zm22.094,0l0,71.438l16.969,0l0,-71.438l-16.969,0zm22.094,0l0,71.438l16.969,0l0,-71.438l-16.969,0zm22.062,0l0,71.438l17,0l0,-71.438l-17,0zm22.094,0l0,71.438l16.969,0l0,-71.438l-16.969,0zm22.094,0l0,71.438l16.969,0l0,-71.438l-16.969,0zm22.062,0l0,71.438l17,0l0,-71.438l-17,0zm22.094,0l0,71.438l16.969,0l0,-71.438l-16.969,0zm22.094,0l0,71.438l16.969,0l0,-71.438l-16.969,0z"/>
   </g>
   <path id="svg_14" fill="#007546" d="m-2.826986,514.587249l313,-24l345.97,4.6724l0.025,5.2108l190.05,-2.3613l234.95,4.3671l16.054,-6.8449l68.122,6.9559l0,41.137l-1164.2,0l-4,-29.137l0.029,0z"/>
   <g id="svg_15" transform="matrix(0.83336,0,0,0.35622,2064.2,1262.8) ">
    <path id="svg_16" fill="#008650" d="m-1954.986187,-2738.338601l160.72,0l0,316l-160.72,0l0,-316z"/>
    <g id="svg_17" transform="matrix(-1,0,0,1,-2166.5,0) ">
     <path id="svg_18" fill="#008650" d="m-400.413813,-2623.338601l64.973,0l0,472l-64.973,0l0,-472z"/>
     <path id="svg_19" fill="#008650" d="m-391.013813,-2607.338601l8.5491,0l0,40l-8.5491,0l0,-40z"/>
     <path id="svg_20" fill="#008650" d="m-391.013813,-2557.338601l8.5491,0l0,40l-8.5491,0l0,-40z"/>
     <path id="svg_21" fill="#008650" d="m-391.013813,-2507.338601l8.5491,0l0,40l-8.5491,0l0,-40z"/>
     <path id="svg_22" fill="#008650" d="m-391.013813,-2457.336601l8.5491,0l0,40l-8.5491,0l0,-40z"/>
     <path id="svg_23" fill="#008650" d="m-391.013813,-2407.336601l8.5491,0l0,40l-8.5491,0l0,-40z"/>
     <path id="svg_24" fill="#008650" d="m-391.013813,-2357.336601l8.5491,0l0,40l-8.5491,0l0,-40z"/>
     <path id="svg_25" fill="#008650" d="m-391.013813,-2307.336601l8.5491,0l0,40l-8.5491,0l0,-40z"/>
     <g id="svg_26" fill="#6b6f57">
      <path fill="#008650" id="svg_27" d="m-365.022811,-2725.338601l8.5491,0l0,40l-8.5491,0l0,-40z"/>
      <path fill="#008650" id="svg_28" d="m-365.022811,-2675.338601l8.5491,0l0,40l-8.5491,0l0,-40z"/>
      <path fill="#008650" id="svg_29" d="m-352.022811,-2725.338601l8.5491,0l0,40l-8.5491,0l0,-40z"/>
      <path fill="#008650" id="svg_30" d="m-352.022811,-2675.338601l8.5491,0l0,40l-8.5491,0l0,-40z"/>
     </g>
     <path id="svg_31" fill="#008650" d="m-378.013813,-2607.338601l8.5491,0l0,40l-8.5491,0l0,-40z"/>
     <path id="svg_32" fill="#008650" d="m-378.013813,-2557.338601l8.5491,0l0,40l-8.5491,0l0,-40z"/>
     <path id="svg_33" fill="#008650" d="m-378.013813,-2507.338601l8.5491,0l0,40l-8.5491,0l0,-40z"/>
     <path id="svg_34" fill="#008650" d="m-378.013813,-2457.336601l8.5491,0l0,40l-8.5491,0l0,-40z"/>
     <path id="svg_35" fill="#008650" d="m-378.013813,-2407.336601l8.5491,0l0,40l-8.5491,0l0,-40z"/>
     <path id="svg_36" fill="#008650" d="m-378.013813,-2357.336601l8.5491,0l0,40l-8.5491,0l0,-40z"/>
     <path id="svg_37" fill="#008650" d="m-378.013813,-2307.336601l8.5491,0l0,40l-8.5491,0l0,-40z"/>
     <path id="svg_38" fill="#008650" d="m-365.013813,-2607.338601l8.5491,0l0,40l-8.5491,0l0,-40z"/>
     <path id="svg_39" fill="#008650" d="m-365.013813,-2557.338601l8.5491,0l0,40l-8.5491,0l0,-40z"/>
     <path id="svg_40" fill="#008650" d="m-365.013813,-2507.338601l8.5491,0l0,40l-8.5491,0l0,-40z"/>
     <path id="svg_41" fill="#008650" d="m-365.013813,-2457.336601l8.5491,0l0,40l-8.5491,0l0,-40z"/>
     <path id="svg_42" fill="#008650" d="m-365.013813,-2407.336601l8.5491,0l0,40l-8.5491,0l0,-40z"/>
     <path id="svg_43" fill="#008650" d="m-365.013813,-2357.336601l8.5491,0l0,40l-8.5491,0l0,-40z"/>
     <path id="svg_44" fill="#008650" d="m-365.013813,-2307.336601l8.5491,0l0,40l-8.5491,0l0,-40z"/>
     <path id="svg_45" fill="#008650" d="m-352.013813,-2607.338601l8.5491,0l0,40l-8.5491,0l0,-40z"/>
     <path id="svg_46" fill="#008650" d="m-352.013813,-2557.338601l8.5491,0l0,40l-8.5491,0l0,-40z"/>
     <path id="svg_47" fill="#008650" d="m-352.013813,-2507.338601l8.5491,0l0,40l-8.5491,0l0,-40z"/>
     <path id="svg_48" fill="#008650" d="m-352.013813,-2457.336601l8.5491,0l0,40l-8.5491,0l0,-40z"/>
     <path id="svg_49" fill="#008650" d="m-352.013813,-2407.336601l8.5491,0l0,40l-8.5491,0l0,-40z"/>
     <path id="svg_50" fill="#008650" d="m-352.013813,-2357.336601l8.5491,0l0,40l-8.5491,0l0,-40z"/>
     <path id="svg_51" fill="#008650" d="m-352.013813,-2307.336601l8.5491,0l0,40l-8.5491,0l0,-40z"/>
    </g>
    <g id="svg_52">
     <path id="svg_53" fill="#008650" d="m-1891.76619,-3357.338601l33.342,0l0,298l-33.342,0l0,-298z"/>
     <path id="svg_54" fill="#008650" d="m-1886.46619,-3297.338601l8.5491,0l0,40l-8.5491,0l0,-40z"/>
     <path id="svg_55" fill="#008650" d="m-1886.46619,-3247.338601l8.5491,0l0,40l-8.5491,0l0,-40z"/>
     <path id="svg_56" fill="#008650" d="m-1886.46619,-3197.338601l8.5491,0l0,40l-8.5491,0l0,-40z"/>
     <path id="svg_57" fill="#008650" d="m-1886.46619,-3147.338601l8.5491,0l0,40l-8.5491,0l0,-40z"/>
     <path id="svg_58" fill="#008650" d="m-1873.46619,-3297.338601l8.5491,0l0,40l-8.5491,0l0,-40z"/>
     <path id="svg_59" fill="#008650" d="m-1873.46619,-3247.338601l8.5491,0l0,40l-8.5491,0l0,-40z"/>
     <path id="svg_60" fill="#008650" d="m-1873.46619,-3197.338601l8.5491,0l0,40l-8.5491,0l0,-40z"/>
     <path id="svg_61" fill="#008650" d="m-1873.46619,-3147.338601l8.5491,0l0,40l-8.5491,0l0,-40z"/>
    </g>
    <g id="svg_62">
     <path id="svg_63" fill="#008650" d="m-1908.856182,-3117.338601l64.973,0l0,636l-64.973,0l0,-636z"/>
     <path id="svg_64" fill="#008650" d="m-1899.456182,-3087.338601l8.5491,0l0,40l-8.5491,0l0,-40z"/>
     <path id="svg_65" fill="#008650" d="m-1899.456182,-3037.338601l8.5491,0l0,40l-8.5491,0l0,-40z"/>
     <path id="svg_66" fill="#008650" d="m-1899.456182,-2987.338601l8.5491,0l0,40l-8.5491,0l0,-40z"/>
     <path id="svg_67" fill="#008650" d="m-1899.456182,-2937.338601l8.5491,0l0,40l-8.5491,0l0,-40z"/>
     <path id="svg_68" fill="#008650" d="m-1899.456182,-2887.338601l8.5491,0l0,40l-8.5491,0l0,-40z"/>
     <path id="svg_69" fill="#008650" d="m-1899.456182,-2837.338601l8.5491,0l0,40l-8.5491,0l0,-40z"/>
     <path id="svg_70" fill="#008650" d="m-1899.456182,-2787.336601l8.5491,0l0,40l-8.5491,0l0,-40z"/>
     <path id="svg_71" fill="#008650" d="m-1899.456182,-2737.336601l8.5491,0l0,40l-8.5491,0l0,-40z"/>
     <path id="svg_72" fill="#008650" d="m-1899.456182,-2687.336401l8.5491,0l0,40l-8.5491,0l0,-40z"/>
     <path id="svg_73" fill="#008650" d="m-1899.456182,-2637.336601l8.5491,0l0,40l-8.5491,0l0,-40z"/>
     <path id="svg_74" fill="#008650" d="m-1886.456182,-3087.338601l8.5491,0l0,40l-8.5491,0l0,-40z"/>
     <path id="svg_75" fill="#008650" d="m-1886.456182,-3037.338601l8.5491,0l0,40l-8.5491,0l0,-40z"/>
     <path id="svg_76" fill="#008650" d="m-1886.456182,-2987.338601l8.5491,0l0,40l-8.5491,0l0,-40z"/>
     <path id="svg_77" fill="#008650" d="m-1886.456182,-2937.338601l8.5491,0l0,40l-8.5491,0l0,-40z"/>
     <path id="svg_78" fill="#008650" d="m-1886.456182,-2887.338601l8.5491,0l0,40l-8.5491,0l0,-40z"/>
     <path id="svg_79" fill="#008650" d="m-1886.456182,-2837.338601l8.5491,0l0,40l-8.5491,0l0,-40z"/>
     <path id="svg_80" fill="#008650" d="m-1886.456182,-2787.336601l8.5491,0l0,40l-8.5491,0l0,-40z"/>
     <path id="svg_81" fill="#008650" d="m-1886.456182,-2737.336601l8.5491,0l0,40l-8.5491,0l0,-40z"/>
     <path id="svg_82" fill="#008650" d="m-1886.456182,-2687.336401l8.5491,0l0,40l-8.5491,0l0,-40z"/>
     <path id="svg_83" fill="#008650" d="m-1886.456182,-2637.336601l8.5491,0l0,40l-8.5491,0l0,-40z"/>
     <path id="svg_84" fill="#008650" d="m-1873.456182,-3087.338601l8.5491,0l0,40l-8.5491,0l0,-40z"/>
     <path id="svg_85" fill="#008650" d="m-1873.456182,-3037.338601l8.5491,0l0,40l-8.5491,0l0,-40z"/>
     <path id="svg_86" fill="#008650" d="m-1873.456182,-2987.338601l8.5491,0l0,40l-8.5491,0l0,-40z"/>
     <path id="svg_87" fill="#008650" d="m-1873.456182,-2937.338601l8.5491,0l0,40l-8.5491,0l0,-40z"/>
     <path id="svg_88" fill="#008650" d="m-1873.456182,-2887.338601l8.5491,0l0,40l-8.5491,0l0,-40z"/>
     <path id="svg_89" fill="#008650" d="m-1873.456182,-2837.338601l8.5491,0l0,40l-8.5491,0l0,-40z"/>
     <path id="svg_90" fill="#008650" d="m-1873.456182,-2787.336601l8.5491,0l0,40l-8.5491,0l0,-40z"/>
     <path id="svg_91" fill="#008650" d="m-1873.456182,-2737.336601l8.5491,0l0,40l-8.5491,0l0,-40z"/>
     <path id="svg_92" fill="#008650" d="m-1873.456182,-2687.336401l8.5491,0l0,40l-8.5491,0l0,-40z"/>
     <path id="svg_93" fill="#008650" d="m-1873.456182,-2637.336601l8.5491,0l0,40l-8.5491,0l0,-40z"/>
     <path id="svg_94" fill="#008650" d="m-1860.456182,-3087.338601l8.5491,0l0,40l-8.5491,0l0,-40z"/>
     <path id="svg_95" fill="#008650" d="m-1860.456182,-3037.338601l8.5491,0l0,40l-8.5491,0l0,-40z"/>
     <path id="svg_96" fill="#008650" d="m-1860.456182,-2987.338601l8.5491,0l0,40l-8.5491,0l0,-40z"/>
     <path id="svg_97" fill="#008650" d="m-1860.456182,-2937.338601l8.5491,0l0,40l-8.5491,0l0,-40z"/>
     <path id="svg_98" fill="#008650" d="m-1860.456182,-2887.338601l8.5491,0l0,40l-8.5491,0l0,-40z"/>
     <path id="svg_99" fill="#008650" d="m-1860.456182,-2837.338601l8.5491,0l0,40l-8.5491,0l0,-40z"/>
     <path id="svg_100" fill="#008650" d="m-1860.456182,-2787.336601l8.5491,0l0,40l-8.5491,0l0,-40z"/>
     <path id="svg_101" fill="#008650" d="m-1860.456182,-2737.336601l8.5491,0l0,40l-8.5491,0l0,-40z"/>
     <path id="svg_102" fill="#008650" d="m-1860.456182,-2687.336401l8.5491,0l0,40l-8.5491,0l0,-40z"/>
     <path id="svg_103" fill="#008650" d="m-1860.456182,-2637.336601l8.5491,0l0,40l-8.5491,0l0,-40z"/>
    </g>
    <path id="svg_104" fill="#008650" d="m-1920.886187,-2899.338601l90.621,0l0,750l-90.621,0l0,-750z"/>
    <path id="svg_105" fill="#008650" d="m-1911.386187,-2855.338601l8.5491,0l0,40l-8.5491,0l0,-40z"/>
    <path id="svg_106" fill="#008650" d="m-1911.386187,-2855.338601l8.5491,0l0,40l-8.5491,0l0,-40z"/>
    <path id="svg_107" fill="#008650" d="m-1911.386187,-2805.338601l8.5491,0l0,40l-8.5491,0l0,-40z"/>
    <path id="svg_108" fill="#008650" d="m-1911.386187,-2755.338601l8.5491,0l0,40l-8.5491,0l0,-40z"/>
    <path id="svg_109" fill="#008650" d="m-1911.386187,-2705.338601l8.5491,0l0,40l-8.5491,0l0,-40z"/>
    <path id="svg_110" fill="#008650" d="m-1911.386187,-2655.338601l8.5491,0l0,40l-8.5491,0l0,-40z"/>
    <path id="svg_111" fill="#008650" d="m-1911.386187,-2605.338601l8.5491,0l0,40l-8.5491,0l0,-40z"/>
    <path id="svg_112" fill="#008650" d="m-1911.386187,-2555.338601l8.5491,0l0,40l-8.5491,0l0,-40z"/>
    <path id="svg_113" fill="#008650" d="m-1911.386187,-2505.338601l8.5491,0l0,40l-8.5491,0l0,-40z"/>
    <path id="svg_114" fill="#008650" d="m-1911.386187,-2455.336601l8.5491,0l0,40l-8.5491,0l0,-40z"/>
    <path id="svg_115" fill="#008650" d="m-1911.386187,-2405.336601l8.5491,0l0,40l-8.5491,0l0,-40z"/>
    <path id="svg_116" fill="#008650" d="m-1911.386187,-2355.336601l8.5491,0l0,40l-8.5491,0l0,-40z"/>
    <path id="svg_117" fill="#008650" d="m-1911.386187,-2305.336601l8.5491,0l0,40l-8.5491,0l0,-40z"/>
    <path id="svg_118" fill="#008650" d="m-1898.386187,-2855.338601l8.5491,0l0,40l-8.5491,0l0,-40z"/>
    <path id="svg_119" fill="#008650" d="m-1898.386187,-2805.338601l8.5491,0l0,40l-8.5491,0l0,-40z"/>
    <path id="svg_120" fill="#008650" d="m-1898.386187,-2755.338601l8.5491,0l0,40l-8.5491,0l0,-40z"/>
    <path id="svg_121" fill="#008650" d="m-1898.386187,-2705.338601l8.5491,0l0,40l-8.5491,0l0,-40z"/>
    <path id="svg_122" fill="#008650" d="m-1898.386187,-2655.338601l8.5491,0l0,40l-8.5491,0l0,-40z"/>
    <path id="svg_123" fill="#008650" d="m-1898.386187,-2605.338601l8.5491,0l0,40l-8.5491,0l0,-40z"/>
    <path id="svg_124" fill="#008650" d="m-1898.386187,-2555.338601l8.5491,0l0,40l-8.5491,0l0,-40z"/>
    <path id="svg_125" fill="#008650" d="m-1898.386187,-2505.338601l8.5491,0l0,40l-8.5491,0l0,-40z"/>
    <path id="svg_126" fill="#008650" d="m-1898.386187,-2455.336601l8.5491,0l0,40l-8.5491,0l0,-40z"/>
    <path id="svg_127" fill="#008650" d="m-1898.386187,-2405.336601l8.5491,0l0,40l-8.5491,0l0,-40z"/>
    <path id="svg_128" fill="#008650" d="m-1898.386187,-2355.336601l8.5491,0l0,40l-8.5491,0l0,-40z"/>
    <path id="svg_129" fill="#008650" d="m-1898.386187,-2305.336601l8.5491,0l0,40l-8.5491,0l0,-40z"/>
    <path id="svg_130" fill="#008650" d="m-1885.386187,-2855.338601l8.5491,0l0,40l-8.5491,0l0,-40z"/>
    <path id="svg_131" fill="#008650" d="m-1885.386187,-2805.338601l8.5491,0l0,40l-8.5491,0l0,-40z"/>
    <path id="svg_132" fill="#008650" d="m-1885.386187,-2755.338601l8.5491,0l0,40l-8.5491,0l0,-40z"/>
    <path id="svg_133" fill="#008650" d="m-1885.386187,-2705.338601l8.5491,0l0,40l-8.5491,0l0,-40z"/>
    <path id="svg_134" fill="#008650" d="m-1885.386187,-2655.338601l8.5491,0l0,40l-8.5491,0l0,-40z"/>
    <path id="svg_135" fill="#008650" d="m-1885.386187,-2605.338601l8.5491,0l0,40l-8.5491,0l0,-40z"/>
    <path id="svg_136" fill="#008650" d="m-1885.386187,-2555.338601l8.5491,0l0,40l-8.5491,0l0,-40z"/>
    <path id="svg_137" fill="#008650" d="m-1885.386187,-2505.338601l8.5491,0l0,40l-8.5491,0l0,-40z"/>
    <path id="svg_138" fill="#008650" d="m-1885.386187,-2455.336601l8.5491,0l0,40l-8.5491,0l0,-40z"/>
    <path id="svg_139" fill="#008650" d="m-1885.386187,-2405.336601l8.5491,0l0,40l-8.5491,0l0,-40z"/>
    <path id="svg_140" fill="#008650" d="m-1885.386187,-2355.336601l8.5491,0l0,40l-8.5491,0l0,-40z"/>
    <path id="svg_141" fill="#008650" d="m-1885.386187,-2305.336601l8.5491,0l0,40l-8.5491,0l0,-40z"/>
    <path id="svg_142" fill="#008650" d="m-1872.386187,-2855.338601l8.5491,0l0,40l-8.5491,0l0,-40z"/>
    <path id="svg_143" fill="#008650" d="m-1872.386187,-2805.338601l8.5491,0l0,40l-8.5491,0l0,-40z"/>
    <path id="svg_144" fill="#008650" d="m-1872.386187,-2755.338601l8.5491,0l0,40l-8.5491,0l0,-40z"/>
    <path id="svg_145" fill="#008650" d="m-1872.386187,-2705.338601l8.5491,0l0,40l-8.5491,0l0,-40z"/>
    <path id="svg_146" fill="#008650" d="m-1872.386187,-2655.338601l8.5491,0l0,40l-8.5491,0l0,-40z"/>
    <path id="svg_147" fill="#008650" d="m-1872.386187,-2605.338601l8.5491,0l0,40l-8.5491,0l0,-40z"/>
    <path id="svg_148" fill="#008650" d="m-1872.386187,-2555.338601l8.5491,0l0,40l-8.5491,0l0,-40z"/>
    <path id="svg_149" fill="#008650" d="m-1872.386187,-2505.338601l8.5491,0l0,40l-8.5491,0l0,-40z"/>
    <path id="svg_150" fill="#008650" d="m-1872.386187,-2455.336601l8.5491,0l0,40l-8.5491,0l0,-40z"/>
    <path id="svg_151" fill="#008650" d="m-1872.386187,-2405.336601l8.5491,0l0,40l-8.5491,0l0,-40z"/>
    <path id="svg_152" fill="#008650" d="m-1872.386187,-2355.336601l8.5491,0l0,40l-8.5491,0l0,-40z"/>
    <path id="svg_153" fill="#008650" d="m-1872.386187,-2305.336601l8.5491,0l0,40l-8.5491,0l0,-40z"/>
    <path id="svg_154" fill="#008650" d="m-1859.386187,-2855.338601l8.5491,0l0,40l-8.5491,0l0,-40z"/>
    <path id="svg_155" fill="#008650" d="m-1859.386187,-2805.338601l8.5491,0l0,40l-8.5491,0l0,-40z"/>
    <path id="svg_156" fill="#008650" d="m-1859.386187,-2755.338601l8.5491,0l0,40l-8.5491,0l0,-40z"/>
    <path id="svg_157" fill="#008650" d="m-1859.386187,-2705.338601l8.5491,0l0,40l-8.5491,0l0,-40z"/>
    <path id="svg_158" fill="#008650" d="m-1859.386187,-2655.338601l8.5491,0l0,40l-8.5491,0l0,-40z"/>
    <path id="svg_159" fill="#008650" d="m-1859.386187,-2605.338601l8.5491,0l0,40l-8.5491,0l0,-40z"/>
    <path id="svg_160" fill="#008650" d="m-1859.386187,-2555.338601l8.5491,0l0,40l-8.5491,0l0,-40z"/>
    <path id="svg_161" fill="#008650" d="m-1859.386187,-2505.338601l8.5491,0l0,40l-8.5491,0l0,-40z"/>
    <path id="svg_162" fill="#008650" d="m-1859.386187,-2455.336601l8.5491,0l0,40l-8.5491,0l0,-40z"/>
    <path id="svg_163" fill="#008650" d="m-1859.386187,-2405.336601l8.5491,0l0,40l-8.5491,0l0,-40z"/>
    <path id="svg_164" fill="#008650" d="m-1859.386187,-2355.336601l8.5491,0l0,40l-8.5491,0l0,-40z"/>
    <path id="svg_165" fill="#008650" d="m-1859.386187,-2305.336601l8.5491,0l0,40l-8.5491,0l0,-40z"/>
    <path id="svg_166" fill="#008650" d="m-1846.386187,-2855.338601l8.5491,0l0,40l-8.5491,0l0,-40z"/>
    <path id="svg_167" fill="#008650" d="m-1846.386187,-2805.338601l8.5491,0l0,40l-8.5491,0l0,-40z"/>
    <path id="svg_168" fill="#008650" d="m-1846.386187,-2755.338601l8.5491,0l0,40l-8.5491,0l0,-40z"/>
    <path id="svg_169" fill="#008650" d="m-1846.386187,-2705.338601l8.5491,0l0,40l-8.5491,0l0,-40z"/>
    <path id="svg_170" fill="#008650" d="m-1846.386187,-2655.338601l8.5491,0l0,40l-8.5491,0l0,-40z"/>
    <path id="svg_171" fill="#008650" d="m-1846.386187,-2605.338601l8.5491,0l0,40l-8.5491,0l0,-40z"/>
    <path id="svg_172" fill="#008650" d="m-1846.386187,-2555.338601l8.5491,0l0,40l-8.5491,0l0,-40z"/>
    <path id="svg_173" fill="#008650" d="m-1846.386187,-2505.338601l8.5491,0l0,40l-8.5491,0l0,-40z"/>
    <path id="svg_174" fill="#008650" d="m-1846.386187,-2455.336601l8.5491,0l0,40l-8.5491,0l0,-40z"/>
    <path id="svg_175" fill="#008650" d="m-1846.386187,-2405.336601l8.5491,0l0,40l-8.5491,0l0,-40z"/>
    <path id="svg_176" fill="#008650" d="m-1846.386187,-2355.336601l8.5491,0l0,40l-8.5491,0l0,-40z"/>
    <path id="svg_177" fill="#008650" d="m-1846.386187,-2305.336601l8.5491,0l0,40l-8.5491,0l0,-40z"/>
    <path id="svg_178" fill="#008650" d="m-1985.786187,-2623.338601l64.973,0l0,472l-64.973,0l0,-472z"/>
    <path id="svg_179" fill="#008650" d="m-1976.386187,-2607.338601l8.5491,0l0,40l-8.5491,0l0,-40z"/>
    <path id="svg_180" fill="#008650" d="m-1976.386187,-2557.338601l8.5491,0l0,40l-8.5491,0l0,-40z"/>
    <path id="svg_181" fill="#008650" d="m-1976.386187,-2507.338601l8.5491,0l0,40l-8.5491,0l0,-40z"/>
    <path id="svg_182" fill="#008650" d="m-1976.386187,-2457.336601l8.5491,0l0,40l-8.5491,0l0,-40z"/>
    <path id="svg_183" fill="#008650" d="m-1976.386187,-2407.336601l8.5491,0l0,40l-8.5491,0l0,-40z"/>
    <path id="svg_184" fill="#008650" d="m-1976.386187,-2357.336601l8.5491,0l0,40l-8.5491,0l0,-40z"/>
    <path id="svg_185" fill="#008650" d="m-1976.386187,-2307.336601l8.5491,0l0,40l-8.5491,0l0,-40z"/>
    <g id="svg_186" fill="#6b6f57">
     <path fill="#008650" id="svg_187" d="m-1950.395185,-2725.338601l8.5491,0l0,40l-8.5491,0l0,-40z"/>
     <path fill="#008650" id="svg_188" d="m-1950.395185,-2675.338601l8.5491,0l0,40l-8.5491,0l0,-40z"/>
     <path fill="#008650" id="svg_189" d="m-1937.395185,-2725.338601l8.5491,0l0,40l-8.5491,0l0,-40z"/>
     <path fill="#008650" id="svg_190" d="m-1937.395185,-2675.338601l8.5491,0l0,40l-8.5491,0l0,-40z"/>
    </g>
    <path id="svg_191" fill="#008650" d="m-1963.386187,-2607.338601l8.5491,0l0,40l-8.5491,0l0,-40z"/>
    <path id="svg_192" fill="#008650" d="m-1963.386187,-2557.338601l8.5491,0l0,40l-8.5491,0l0,-40z"/>
    <path id="svg_193" fill="#008650" d="m-1963.386187,-2507.338601l8.5491,0l0,40l-8.5491,0l0,-40z"/>
    <path id="svg_194" fill="#008650" d="m-1963.386187,-2457.336601l8.5491,0l0,40l-8.5491,0l0,-40z"/>
    <path id="svg_195" fill="#008650" d="m-1963.386187,-2407.336601l8.5491,0l0,40l-8.5491,0l0,-40z"/>
    <path id="svg_196" fill="#008650" d="m-1963.386187,-2357.336601l8.5491,0l0,40l-8.5491,0l0,-40z"/>
    <path id="svg_197" fill="#008650" d="m-1963.386187,-2307.336601l8.5491,0l0,40l-8.5491,0l0,-40z"/>
    <path id="svg_198" fill="#008650" d="m-1950.386187,-2607.338601l8.5491,0l0,40l-8.5491,0l0,-40z"/>
    <path id="svg_199" fill="#008650" d="m-1950.386187,-2557.338601l8.5491,0l0,40l-8.5491,0l0,-40z"/>
    <path id="svg_200" fill="#008650" d="m-1950.386187,-2507.338601l8.5491,0l0,40l-8.5491,0l0,-40z"/>
    <path id="svg_201" fill="#008650" d="m-1950.386187,-2457.336601l8.5491,0l0,40l-8.5491,0l0,-40z"/>
    <path id="svg_202" fill="#008650" d="m-1950.386187,-2407.336601l8.5491,0l0,40l-8.5491,0l0,-40z"/>
    <path id="svg_203" fill="#008650" d="m-1950.386187,-2357.336601l8.5491,0l0,40l-8.5491,0l0,-40z"/>
    <path id="svg_204" fill="#008650" d="m-1950.386187,-2307.336601l8.5491,0l0,40l-8.5491,0l0,-40z"/>
    <path id="svg_205" fill="#008650" d="m-1937.386187,-2607.338601l8.5491,0l0,40l-8.5491,0l0,-40z"/>
    <path id="svg_206" fill="#008650" d="m-1937.386187,-2557.338601l8.5491,0l0,40l-8.5491,0l0,-40z"/>
    <path id="svg_207" fill="#008650" d="m-1937.386187,-2507.338601l8.5491,0l0,40l-8.5491,0l0,-40z"/>
    <path id="svg_208" fill="#008650" d="m-1937.386187,-2457.336601l8.5491,0l0,40l-8.5491,0l0,-40z"/>
    <path id="svg_209" fill="#008650" d="m-1937.386187,-2407.336601l8.5491,0l0,40l-8.5491,0l0,-40z"/>
    <path id="svg_210" fill="#008650" d="m-1937.386187,-2357.336601l8.5491,0l0,40l-8.5491,0l0,-40z"/>
    <path id="svg_211" fill="#008650" d="m-1937.386187,-2307.336601l8.5491,0l0,40l-8.5491,0l0,-40z"/>
   </g>
   <g id="svg_212" transform="matrix(1.0148,0,0,1.0148,2179.4,896.05) ">
    <path id="svg_213" fill="#008650" d="m-1273.718736,-753.509605l65.66,0l0,30.305l-65.66,0l0,-30.305z"/>
    <path id="svg_214" fill="#008650" d="m-1285.338736,-725.691605l88.893,0l0,345.47l-88.893,0l0,-345.47z"/>
    <g id="svg_215" fill="#555753">
     <path fill="#008650" id="svg_216" d="m-1225.774136,-673.849605l4,0l0,292.94l-4,0l0,-292.94z"/>
     <path fill="#008650" id="svg_217" d="m-1214.364136,-673.849605l4,0l0,292.94l-4,0l0,-292.94z"/>
     <path fill="#008650" id="svg_218" d="m-1237.184136,-673.849605l4,0l0,292.94l-4,0l0,-292.94z"/>
     <path fill="#008650" id="svg_219" d="m-1248.594136,-673.849605l4,0l0,292.94l-4,0l0,-292.94z"/>
     <path fill="#008650" id="svg_220" d="m-1260.004136,-673.849605l4,0l0,292.94l-4,0l0,-292.94z"/>
     <path fill="#008650" id="svg_221" d="m-1271.404136,-673.849605l4,0l0,292.94l-4,0l0,-292.94z"/>
    </g>
    <path fill="#008650" id="svg_222" d="m-1247.538736,-775.694605l2.8284,0l0,23.335l-2.8284,0l0,-23.335z"/>
    <path fill="#008650" id="svg_223" d="m-1235.028736,-815.999705l2.8284,0l0,62.932l-2.8284,0l0,-62.932z"/>
   </g>
   <g id="svg_224" transform="matrix(0.82538,0,0,0.82538,2396.3,981.07) ">
    <path id="svg_225" fill="#008650" d="m-1690.581711,-932.352722l109.16,0l0,30.305l-109.16,0l0,-30.305z"/>
    <path id="svg_226" fill="#008650" d="m-1702.021711,-907.484722l132.89,0l0,345.47l-132.89,0l0,-345.47z"/>
    <path id="svg_227" fill="#008650" d="m-1694.021711,-893.022722l113.14,0l0,9.1924l-113.14,0l0,-9.1924z"/>
    <path id="svg_228" fill="#008650" d="m-1694.021711,-871.902722l113.14,0l0,9.1924l-113.14,0l0,-9.1924z"/>
    <path id="svg_229" fill="#008650" d="m-1694.021711,-745.182722l113.14,0l0,9.1924l-113.14,0l0,-9.1924z"/>
    <path id="svg_230" fill="#008650" d="m-1694.021711,-724.072722l113.14,0l0,9.1924l-113.14,0l0,-9.1924z"/>
    <path id="svg_231" fill="#008650" d="m-1694.021711,-702.952722l113.14,0l0,9.1924l-113.14,0l0,-9.1924z"/>
    <path id="svg_232" fill="#008650" d="m-1694.021711,-681.832722l113.14,0l0,9.1924l-113.14,0l0,-9.1924z"/>
    <path id="svg_233" fill="#008650" d="m-1694.021711,-660.712722l113.14,0l0,9.1924l-113.14,0l0,-9.1924z"/>
    <path id="svg_234" fill="#008650" d="m-1694.021711,-639.592722l113.14,0l0,9.1924l-113.14,0l0,-9.1924z"/>
    <path id="svg_235" fill="#008650" d="m-1694.021711,-618.472722l113.14,0l0,9.1924l-113.14,0l0,-9.1924z"/>
    <path id="svg_236" fill="#008650" d="m-1694.021711,-597.352722l113.14,0l0,9.1924l-113.14,0l0,-9.1924z"/>
    <path id="svg_237" fill="#008650" d="m-1692.611711,-576.232722l113.14,0l0,9.1924l-113.14,0l0,-9.1924z"/>
    <path id="svg_238" fill="#008650" d="m-1694.021711,-850.782722l113.14,0l0,9.1924l-113.14,0l0,-9.1924z"/>
    <path id="svg_239" fill="#008650" d="m-1694.021711,-829.662722l113.14,0l0,9.1924l-113.14,0l0,-9.1924z"/>
    <path id="svg_240" fill="#008650" d="m-1694.021711,-808.542722l113.14,0l0,9.1924l-113.14,0l0,-9.1924z"/>
    <path id="svg_241" fill="#008650" d="m-1694.021711,-787.422722l113.14,0l0,9.1924l-113.14,0l0,-9.1924z"/>
    <path id="svg_242" fill="#008650" d="m-1694.021711,-766.302722l113.14,0l0,9.1924l-113.14,0l0,-9.1924z"/>
   </g>
   <g id="svg_530" transform="matrix(0.38243,0,0,0.38243,997.42,1466.7) ">
    <path id="svg_531" fill="#008650" d="m-2241.799972,-2890.40706l310.89,0l0,382.24l-310.89,0l0,-382.24z"/>
    <g id="svg_532" fill="#555753" transform="matrix(2.3394,0,0,1,1778.3,-798) ">
     <path fill="#008650" id="svg_533" d="m-1708.553506,-2077.94706l113.14,0l0,9.1924l-113.14,0l0,-9.1924z"/>
     <path fill="#008650" id="svg_534" d="m-1708.553506,-2056.82706l113.14,0l0,9.1924l-113.14,0l0,-9.1924z"/>
     <path fill="#008650" id="svg_535" d="m-1708.553506,-1930.10706l113.14,0l0,9.1924l-113.14,0l0,-9.1924z"/>
     <path fill="#008650" id="svg_536" d="m-1708.553506,-1908.99706l113.14,0l0,9.1924l-113.14,0l0,-9.1924z"/>
     <path fill="#008650" id="svg_537" d="m-1708.553506,-1887.87706l113.14,0l0,9.1924l-113.14,0l0,-9.1924z"/>
     <path fill="#008650" id="svg_538" d="m-1708.553506,-1866.75706l113.14,0l0,9.1924l-113.14,0l0,-9.1924z"/>
     <path fill="#008650" id="svg_539" d="m-1708.553506,-1845.63706l113.14,0l0,9.1924l-113.14,0l0,-9.1924z"/>
     <path fill="#008650" id="svg_540" d="m-1708.553506,-1824.51706l113.14,0l0,9.1924l-113.14,0l0,-9.1924z"/>
     <path fill="#008650" id="svg_541" d="m-1708.553506,-1803.39706l113.14,0l0,9.1924l-113.14,0l0,-9.1924z"/>
     <path fill="#008650" id="svg_542" d="m-1708.553506,-1782.27706l113.14,0l0,9.1924l-113.14,0l0,-9.1924z"/>
     <path fill="#008650" id="svg_543" d="m-1708.553506,-1761.15706l113.14,0l0,9.1924l-113.14,0l0,-9.1924z"/>
     <path fill="#008650" id="svg_544" d="m-1708.553506,-2035.70706l113.14,0l0,9.1924l-113.14,0l0,-9.1924z"/>
     <path fill="#008650" id="svg_545" d="m-1708.553506,-2014.58706l113.14,0l0,9.1924l-113.14,0l0,-9.1924z"/>
     <path fill="#008650" id="svg_546" d="m-1708.553506,-1993.46706l113.14,0l0,9.1924l-113.14,0l0,-9.1924z"/>
     <path fill="#008650" id="svg_547" d="m-1708.553506,-1972.34706l113.14,0l0,9.1924l-113.14,0l0,-9.1924z"/>
     <path fill="#008650" id="svg_548" d="m-1708.553506,-1951.22706l113.14,0l0,9.1924l-113.14,0l0,-9.1924z"/>
    </g>
    <g id="svg_549" fill="#8a9da5" transform="matrix(2.3394,0,0,1,1780.9,-798) ">
     <path fill="#008650" id="svg_550" d="m-1693.293506,-2091.83506l2.4003,0l0,346l-2.4003,0l0,-346z"/>
     <path fill="#008650" id="svg_551" d="m-1615.313506,-2087.24906l2.4003,0l0,346l-2.4003,0l0,-346z"/>
     <path fill="#008650" id="svg_552" d="m-1667.303506,-2089.71306l2.4003,0l0,346l-2.4003,0l0,-346z"/>
     <path fill="#008650" id="svg_553" d="m-1641.313506,-2091.12806l2.4003,0l0,346l-2.4003,0l0,-346z"/>
    </g>
    <g id="svg_554" fill="#555753" transform="matrix(2.3394,0,0,1,1779.8,-798) ">
     <path fill="#008650" id="svg_555" d="m-1603.643506,-1740.26706l7.2542,0l0,28.991l-7.2542,0l0,-28.991z"/>
     <path fill="#008650" id="svg_556" d="m-1656.233506,-1740.26706l7.2542,0l0,28.991l-7.2542,0l0,-28.991z"/>
     <path fill="#008650" id="svg_557" d="m-1665.003506,-1740.26706l7.2542,0l0,28.991l-7.2542,0l0,-28.991z"/>
     <path fill="#008650" id="svg_558" d="m-1673.763506,-1740.26706l7.2542,0l0,28.991l-7.2542,0l0,-28.991z"/>
     <path fill="#008650" id="svg_559" d="m-1682.533506,-1740.26706l7.2542,0l0,28.991l-7.2542,0l0,-28.991z"/>
     <path fill="#008650" id="svg_560" d="m-1691.303506,-1740.26706l7.2542,0l0,28.991l-7.2542,0l0,-28.991z"/>
     <path fill="#008650" id="svg_561" d="m-1700.063506,-1740.26706l7.2542,0l0,28.991l-7.2542,0l0,-28.991z"/>
     <path fill="#008650" id="svg_562" d="m-1708.833506,-1740.26706l7.2542,0l0,28.991l-7.2542,0l0,-28.991z"/>
     <path fill="#008650" id="svg_563" d="m-1717.593506,-1740.26706l7.2542,0l0,28.991l-7.2542,0l0,-28.991z"/>
     <path fill="#008650" id="svg_564" d="m-1594.883506,-1740.26706l7.2542,0l0,28.991l-7.2542,0l0,-28.991z"/>
     <path fill="#008650" id="svg_565" d="m-1612.413506,-1740.26706l7.2542,0l0,28.991l-7.2542,0l0,-28.991z"/>
     <path fill="#008650" id="svg_566" d="m-1621.173506,-1740.26706l7.2542,0l0,28.991l-7.2542,0l0,-28.991z"/>
     <path fill="#008650" id="svg_567" d="m-1629.943506,-1740.26706l7.2542,0l0,28.991l-7.2542,0l0,-28.991z"/>
     <path fill="#008650" id="svg_568" d="m-1638.703506,-1740.26706l7.2542,0l0,28.991l-7.2542,0l0,-28.991z"/>
     <path fill="#008650" id="svg_569" d="m-1647.473506,-1740.26706l7.2542,0l0,28.991l-7.2542,0l0,-28.991z"/>
    </g>
   </g>
   <path id="svg_570" fill="#01a864" d="m105.348275,92.35376c-19.727,1.3937 -26.351,30.202 -12.087,42.283c4.5626,10.359 -11.263,21.602 -19.497,12.785c-14.002,-5.0444 -31.067,2.0827 -37.451,15.497c-15.618,-8.3351 -34.484,6.2977 -35.331,22.751c-2.7479,16.672 9.6946,36.94 28.022,35.777c11.479,0.8746 17.729,-17.442 29.88,-6.8881c12.846,4.49 24.865,-13.304 34.989,-2.3849c10.968,5.6141 25.472,4.2541 34.564,-4.3131c12.676,7.6313 29.63,-6.9781 40.27,6.4257c19.266,12.768 49.231,7.7894 61.188,-12.575c10.312,-1.3466 16.098,16.127 28.891,12c10.211,2.9675 19.694,-11.382 25.691,-8.9134c11.923,11.79 34.598,4.4101 37.811,-11.96c5.0019,-15.686 -8.8337,-35.451 -25.984,-32.533c-14.765,8.5627 -18.838,-18.85 -34.726,-15.253c-3.9998,-5.0557 5.996,-16.617 -0.4297,-24.432c-4.0522,-12.151 -19.266,-19.254 -30.604,-12.513c-5.4038,5.8209 -10.848,19.035 -19.128,7.9922c-11.994,-8.6712 -28.669,-1.1638 -39.417,-3.4935c-12.336,-11.514 -31.371,-15.892 -47.195,-9.5074c-3.9371,-6.6719 -11.569,-11.422 -19.455,-10.743l-0.0013,-0.0015z"/>
   <path id="svg_571" fill="#008650" d="m293.098417,63.81754c-11.916,0.8389 -15.764,20.338 -7.0783,28.606c2.8135,7.0491 -6.691,14.588 -11.716,8.5643c-8.49,-3.496 -18.766,1.245 -22.553,10.306c-9.4843,-5.736 -20.809,4.0848 -21.232,15.237c-1.5712,11.29 6.0583,25.101 17.13,24.411c6.943,0.6548 10.622,-11.732 18.023,-4.5099c7.7884,3.1137 14.957,-8.8873 21.135,-1.4288c6.6596,3.8659 15.418,3.0217 20.868,-2.7386c7.7026,5.2429 17.871,-4.5723 24.374,4.5739c11.714,8.7615 29.798,5.5469 36.915,-8.1976c6.2252,-0.8576 9.8166,11.022 17.527,8.2924c6.1879,2.0672 11.842,-7.6121 15.48,-5.9058c7.2698,8.0592 20.935,3.1767 22.789,-7.9062c2.9388,-10.609 -5.53,-24.086 -15.88,-22.2c-8.878,5.7268 -11.487,-12.884 -21.071,-10.53c-2.4447,-3.4497 3.5346,-11.236 -0.39123,-16.569c-2.5146,-8.2615 -11.748,-13.16 -18.565,-8.6498c-3.2348,3.918 -6.454,12.849 -11.518,5.3165c-7.2959,-5.9445 -17.334,-0.9435 -23.843,-2.5811c-7.5181,-7.8742 -19.047,-10.945 -28.577,-6.7008c-2.4156,-4.5454 -7.0542,-7.8077 -11.817,-7.3896l0.00053,0.0001z"/>
   <g id="svg_572" transform="matrix(0.58053,0,0,0.58053,825.69,752.98) ">
    <path id="svg_573" fill="#018e54" d="m-859.242282,-578.105029c-22.063,12.61 -36.245,32.218 -36.245,54.239c0,25.651 19.226,48.029 47.755,59.886c22.063,-12.61 36.245,-32.218 36.245,-54.239c0,-25.651 -19.226,-48.029 -47.755,-59.886z"/>
    <path id="svg_574" fill="#018e54" d="m-852.492282,-546.045029l14,143l-15,0l1,-143z"/>
    <path id="svg_575" fill="#018e54" d="m-821.532282,-520.695029l-25.918,35.971l-3.3289,-3.1673l29.247,-32.804l-0.0001,0.0003z"/>
    <path id="svg_576" fill="#018e54" d="m-879.422282,-525.285029l26.858,27.839l3.4497,-2.4513l-30.308,-25.388l0.0003,0.0003z"/>
   </g>
   <g id="svg_577" transform="matrix(0.58053,0,0,0.58053,619.69,748.98) ">
    <path id="svg_578" fill="#02b266" d="m-643.243396,-529.936523c22.063,11.457 36.245,29.273 36.245,49.282c0,23.307 -19.226,43.64 -47.755,54.412c-22.063,-11.457 -36.245,-29.273 -36.245,-49.282c0,-23.307 19.226,-43.64 47.755,-54.412z"/>
    <path id="svg_579" fill="#02b266" d="m-649.993396,-500.806523l-14,129.93l15,0l-1,-129.93z"/>
    <path id="svg_580" fill="#02b266" d="m-680.953396,-477.766523l25.918,32.683l3.3289,-2.8778l-29.247,-29.806l0.0001,0.0008z"/>
    <path id="svg_581" fill="#02b266" d="m-623.063396,-481.946523l-26.858,25.295l-3.4497,-2.2273l30.308,-23.068l-0.0003,0.0003z"/>
   </g>
   <g id="svg_582">
    <g id="svg_583" transform="matrix(0.58053,0,0,0.58053,107.88,450.24) ">
     <path id="svg_584" fill="#018e54" d="m1282.034509,-27.810644c22.063,11.457 32.245,59.273 32.245,79.282c0,23.307 -15.226,13.64 -43.755,24.412c-22.063,-11.457 -39.245,-3.2732 -39.245,-23.282c0,-23.307 22.226,-69.64 50.755,-80.412z"/>
     <path id="svg_585" fill="#018e54" d="m1275.284509,1.319356l-12,103.93l15,0l-3,-103.93z"/>
    </g>
    <path id="svg_586" fill="#018e54" d="m830.24685,464.34286l15.046,18.974l1.9325,-1.6707l-16.979,-17.303l0.0005,-0.0003z"/>
    <path id="svg_587" fill="#018e54" d="m863.84685,461.94286l-15.592,14.684l-2.0026,-1.293l17.594,-13.392l0.0006,0.001z"/>
   </g>
   <g id="svg_588" transform="matrix(0.58053,0,0,0.58053,634.24,595.46) ">
    <path id="svg_589" fill="#018e54" d="m-302.927399,-221.788177l-12,103.93l15,0l-3,-103.93z"/>
    <path id="svg_590" fill="#018e54" d="m-296.167399,-250.888177c22.063,11.458 32.245,59.273 32.245,79.282c0,23.307 -15.226,13.64 -43.755,24.412c-22.063,-11.457 -39.245,-3.2732 -39.245,-23.282c0,-23.307 22.226,-69.64 50.755,-80.412z"/>
    <path id="svg_591" fill="#018e54" d="m-294.917399,-301.088177c18.304,9.5053 26.751,49.174 26.751,65.773c0,19.336 -12.632,11.316 -36.3,20.253c-18.304,-9.5052 -32.558,-2.7155 -32.558,-19.315c0,-19.336 18.439,-57.774 42.107,-66.711z"/>
    <path id="svg_592" fill="#018e54" d="m-293.437399,-341.788177c13.417,6.9674 19.609,36.044 19.609,48.212c0,14.173 -9.2591,8.2944 -26.608,14.845c-13.417,-6.9673 -23.865,-1.9905 -23.865,-14.158c0,-14.173 13.516,-42.348 30.864,-48.9l0,0.001z"/>
   </g>
   <g id="svg_593" transform="matrix(0.58053,0,0,0.58053,741.69,770.98) ">
    <path id="svg_594" fill="#02b266" d="m-380.618117,-538.978649c22.063,11.457 32.245,59.273 32.245,79.282c0,23.307 -15.226,13.64 -43.755,24.412c-22.063,-11.457 -39.245,-3.2732 -39.245,-23.282c0,-23.307 22.226,-69.64 50.755,-80.412z"/>
    <path id="svg_595" fill="#02b266" d="m-387.368117,-509.848649l-12,103.93l15,0l-3,-103.93z"/>
    <path id="svg_596" fill="#02b266" d="m-418.328117,-486.808649l25.918,32.683l3.3289,-2.8778l-29.247,-29.806l0.0001,0.0008z"/>
    <path id="svg_597" fill="#02b266" d="m-360.438117,-490.988649l-26.858,25.295l-3.4497,-2.2273l30.308,-23.068l-0.0003,0.0003z"/>
   </g>
   <g id="svg_598" transform="matrix(0.58053,0,0,0.58053,775.69,766.98) ">
    <path stroke="#018e54" id="svg_599" fill="#018e54" d="m-381.996707,-608.670305c-35.07,0 -59.5,22.446 -59.5,41.5s35.43,24.5 70.5,24.5c23.646,-7.6103 28.454,19.251 51.5,21c19.33,0 35,-9.402 35,-21c1.9665,-19.659 -30.337,-15.033 -30,-24.5c0,-19.054 -32.43,-41.5 -67.5,-41.5z"/>
    <path stroke="#018e54" id="svg_600" fill="#018e54" d="m-375.616708,-592.969005c-27.008,0 -45.822,17.286 -45.822,31.96s27.285,18.868 54.293,18.868c18.21,-5.8608 21.913,14.825 39.661,16.172c14.886,0 26.954,-7.2406 26.954,-16.172c1.5144,-15.14 -23.363,-11.577 -23.103,-18.868c0,-14.674 -24.975,-31.96 -51.983,-31.96z"/>
    <path stroke="#018e54" id="svg_601" fill="#018e54" d="m-382.496707,-583.670305l14,152l-15,0l1,-152z"/>
    <path stroke="#018e54" id="svg_602" fill="#018e54" d="m-331.536707,-547.820305l-46.918,27.471l-2.3289,-10.667l49.247,-16.804l-0.0001,0z"/>
    <path stroke="#018e54" id="svg_603" fill="#018e54" d="m-409.426707,-558.910305l27.358,34.339l2.9497,-8.9513l-30.308,-25.388l0.0003,0.0003z"/>
   </g>
   <g id="svg_604" transform="matrix(-0.58053,0,0,0.46246,2166.1,879.95) ">
    <path id="svg_605" fill="#019958" d="m1787.825988,-945.7169c-35.07,0 -59.5,22.446 -59.5,41.5s35.43,24.5 70.5,24.5c23.646,-7.6103 28.454,19.251 51.5,21c19.33,0 35,-9.402 35,-21c1.9665,-19.659 -30.337,-15.033 -30,-24.5c0,-19.054 -32.43,-41.5 -67.5,-41.5z"/>
    <path id="svg_606" fill="#019958" d="m1794.205988,-928.7169c-27.008,0 -45.822,17.286 -45.822,31.96s27.285,18.868 54.293,18.868c18.21,-5.8608 21.913,14.825 39.661,16.172c14.886,0 26.954,-7.2406 26.954,-16.172c1.5144,-15.14 -23.363,-11.577 -23.103,-18.868c0,-14.674 -24.975,-31.96 -51.983,-31.96z"/>
    <path id="svg_607" fill="#019958" d="m1787.325988,-920.7169l14,152l-15,0l1,-152z"/>
    <path id="svg_608" fill="#019958" d="m1838.285988,-884.8669l-46.918,27.471l-2.3289,-10.667l49.247,-16.804l-0.0001,0z"/>
    <path id="svg_609" fill="#019958" d="m1760.395988,-895.9569l27.358,34.339l2.9497,-8.9513l-30.308,-25.388l0.0003,0.0003z"/>
   </g>
   <g id="svg_610" transform="matrix(-0.77637,0,0,0.58053,1846.5,584.82) ">
    <path id="svg_611" fill="#02b266" d="m1498.143888,-206.329201l-12,103.93l15,0l-3,-103.93z"/>
    <path id="svg_612" fill="#02b266" d="m1504.903888,-235.429201c22.063,11.458 32.245,59.273 32.245,79.282c0,23.307 -15.226,13.64 -43.755,24.412c-22.063,-11.457 -39.245,-3.2732 -39.245,-23.282c0,-23.307 22.226,-69.64 50.755,-80.412z"/>
    <path id="svg_613" fill="#02b266" d="m1506.153888,-285.629201c18.304,9.5053 26.751,49.174 26.751,65.773c0,19.336 -12.632,11.316 -36.3,20.253c-18.304,-9.5052 -32.558,-2.7155 -32.558,-19.315c0,-19.336 18.439,-57.774 42.107,-66.711z"/>
    <path id="svg_614" fill="#02b266" d="m1507.633888,-326.329201c13.417,6.9674 19.609,36.044 19.609,48.212c0,14.173 -9.2591,8.2944 -26.608,14.845c-13.417,-6.9673 -23.865,-1.9905 -23.865,-14.158c0,-14.173 13.516,-42.348 30.864,-48.9l0,0.001z"/>
   </g>
   <g id="svg_615" transform="matrix(-0.77637,0,0,0.58053,1276.5,592.82) ">
    <path id="svg_616" fill="#018e54" d="m1509.703325,-241.664007l-12,103.93l15,0l-3,-103.93z"/>
    <path id="svg_617" fill="#018e54" d="m1516.463325,-270.764007c22.063,11.458 32.245,59.273 32.245,79.282c0,23.307 -15.226,13.64 -43.755,24.412c-22.063,-11.457 -39.245,-3.2732 -39.245,-23.282c0,-23.307 22.226,-69.64 50.755,-80.412z"/>
    <path id="svg_618" fill="#018e54" d="m1517.713325,-320.964007c18.304,9.5053 26.751,49.174 26.751,65.773c0,19.336 -12.632,11.316 -36.3,20.253c-18.304,-9.5052 -32.558,-2.7155 -32.558,-19.315c0,-19.336 18.439,-57.774 42.107,-66.711z"/>
    <path id="svg_619" fill="#018e54" d="m1519.193325,-361.664007c13.417,6.9674 19.609,36.044 19.609,48.212c0,14.173 -9.2591,8.2944 -26.608,14.845c-13.417,-6.9673 -23.865,-1.9905 -23.865,-14.158c0,-14.173 13.516,-42.348 30.864,-48.9l0,0.001z"/>
   </g>
   <g id="svg_620" transform="matrix(1.1554,0,0,1.1554,669.16,169.42) ">
    <g id="svg_621" transform="matrix(0.58053,0,0,0.58053,107.88,450.24) ">
     <path id="svg_622" fill="#02b266" d="m-629.545889,-386.998553c22.063,11.457 32.245,59.273 32.245,79.282c0,23.307 -15.226,13.64 -43.755,24.412c-22.063,-11.457 -39.245,-3.2732 -39.245,-23.282c0,-23.307 22.226,-69.64 50.755,-80.412z"/>
     <path id="svg_623" fill="#02b266" d="m-636.295889,-357.868553l-12,103.93l15,0l-3,-103.93z"/>
    </g>
    <path id="svg_624" fill="#02b266" d="m-279.482968,255.823478l15.046,18.974l1.9325,-1.6707l-16.979,-17.303l0.0005,-0.0003z"/>
    <path id="svg_625" fill="#02b266" d="m-245.882968,253.423478l-15.592,14.684l-2.0026,-1.293l17.594,-13.392l0.0006,0.001z"/>
   </g>
   <g id="svg_626" transform="matrix(0.58053,0,0,0.58053,1185.7,744.98) ">
    <path id="svg_627" fill="#019958" d="m-727.163558,-554.229201c22.063,11.457 36.245,29.273 36.245,49.282c0,23.307 -19.226,43.64 -47.755,54.412c-22.063,-11.457 -36.245,-29.273 -36.245,-49.282c0,-23.307 19.226,-43.64 47.755,-54.412z"/>
    <path id="svg_628" fill="#019958" d="m-733.913558,-525.099201l-14,129.93l15,0l-1,-129.93z"/>
    <path id="svg_629" fill="#019958" d="m-764.873558,-502.059201l25.918,32.683l3.3289,-2.8778l-29.247,-29.806l0.0001,0.0008z"/>
    <path id="svg_630" fill="#019958" d="m-706.983558,-506.239201l-26.858,25.295l-3.4497,-2.2273l30.308,-23.068l-0.0003,0.0003z"/>
   </g>
   <g id="svg_631" transform="matrix(-0.73331,0,0,0.58417,2033.8,759.99) ">
    <path id="svg_632" fill="#02b266" d="m1391.838197,-586.119109c-35.07,0 -59.5,22.446 -59.5,41.5s35.43,24.5 70.5,24.5c23.646,-7.6103 28.454,19.251 51.5,21c19.33,0 35,-9.402 35,-21c1.9665,-19.659 -30.337,-15.033 -30,-24.5c0,-19.054 -32.43,-41.5 -67.5,-41.5z"/>
    <path id="svg_633" fill="#02b266" d="m1398.218197,-569.119109c-27.008,0 -45.822,17.286 -45.822,31.96s27.285,18.868 54.293,18.868c18.21,-5.8608 21.913,14.825 39.661,16.172c14.886,0 26.954,-7.2406 26.954,-16.172c1.5144,-15.14 -23.363,-11.577 -23.103,-18.868c0,-14.674 -24.975,-31.96 -51.983,-31.96z"/>
    <path id="svg_634" fill="#02b266" d="m1391.338197,-561.119109l14,152l-15,0l1,-152z"/>
    <path id="svg_635" fill="#02b266" d="m1442.298197,-525.269109l-46.918,27.471l-2.3289,-10.667l49.247,-16.804l-0.0001,0z"/>
    <path id="svg_636" fill="#02b266" d="m1364.408197,-536.359109l27.358,34.339l2.9497,-8.9513l-30.308,-25.388l0.0003,0.0003z"/>
   </g>
   <g id="svg_637" transform="matrix(-0.50167,0,0,0.37513,1601.9,844.96) ">
    <path id="svg_638" fill="#018e54" d="m1964.057866,-1003.84231l-12,103.93l15,0l-3,-103.93z"/>
    <path id="svg_639" fill="#018e54" d="m1970.817866,-1032.94231c22.063,11.458 32.245,59.273 32.245,79.282c0,23.307 -15.226,13.64 -43.755,24.412c-22.063,-11.457 -39.245,-3.2732 -39.245,-23.282c0,-23.307 22.226,-69.64 50.755,-80.412z"/>
    <path id="svg_640" fill="#018e54" d="m1972.067866,-1083.14231c18.304,9.5053 26.751,49.174 26.751,65.773c0,19.336 -12.632,11.316 -36.3,20.253c-18.304,-9.5052 -32.558,-2.7155 -32.558,-19.315c0,-19.336 18.439,-57.774 42.107,-66.711z"/>
    <path id="svg_641" fill="#018e54" d="m1973.547866,-1123.84231c13.417,6.9674 19.609,36.044 19.609,48.212c0,14.173 -9.2591,8.2944 -26.608,14.845c-13.417,-6.9673 -23.865,-1.9905 -23.865,-14.158c0,-14.173 13.516,-42.348 30.864,-48.9l0,0.001z"/>
   </g>
  </g>
 </g>
</svg>